<svg width="24" height="25" fill="none" xmlns="http://www.w3.org/2000/svg">
    <defs>
        <clipPath id="a">
            <path fill="#fff" fill-opacity="0" d="M0 0h24v25H0z"/>
        </clipPath>
    </defs>
    <path d="M0 0h24v25H0z"/>
    <g clip-path="url(#a)" fill="#0F0F0F">
        <path d="M12 18.5c3.31 0 6-2.69 6-6 0-3.32-2.69-6-6-6-3.32 0-6 2.68-6 6 0 3.31 2.68 6 6 6Zm0-2c2.2 0 4-1.8 4-4a3.999 3.999 0 1 0-4 4Z" fill-rule="evenodd"/>
        <path d="M18 5.5c-.56 0-1 .44-1 1 0 .55.44 1 1 1 .55 0 1-.45 1-1 0-.56-.45-1-1-1Z"/>
        <path d="M1.65 4.77C1 6.05 1 7.73 1 11.1v2.79c0 3.37 0 5.05.65 6.33a5.927 5.927 0 0 0 2.62 2.62c1.28.66 2.96.66 6.33.66h2.8c3.36 0 5.04 0 6.32-.66a5.927 5.927 0 0 0 2.62-2.62c.66-1.28.66-2.96.66-6.33V11.1c0-3.37 0-5.05-.66-6.33a5.927 5.927 0 0 0-2.62-2.62c-1.28-.65-2.96-.65-6.32-.65h-2.8c-3.37 0-5.05 0-6.33.65a5.927 5.927 0 0 0-2.62 2.62ZM13.4 3.5h-2.8c-1.72 0-2.88 0-3.78.07-.88.07-1.33.2-1.64.36a4 4 0 0 0-1.75 1.75c-.16.31-.29.76-.36 1.64C3 8.22 3 9.38 3 11.1v2.79c0 1.72 0 2.88.07 3.78.07.88.2 1.33.36 1.64a4 4 0 0 0 1.75 1.75c.31.16.76.29 1.64.36.9.07 2.06.08 3.78.08h2.8c1.71 0 2.87-.01 3.77-.08.88-.07 1.33-.2 1.64-.36a4 4 0 0 0 1.75-1.75c.16-.31.29-.76.36-1.64.07-.9.08-2.06.08-3.78V11.1c0-1.72-.01-2.88-.08-3.78-.07-.88-.2-1.33-.36-1.64a4 4 0 0 0-1.75-1.75c-.31-.16-.76-.29-1.64-.36-.9-.07-2.06-.07-3.77-.07Z" fill-rule="evenodd"/>
    </g>
</svg>
