<svg width="24" height="25" fill="none" xmlns="http://www.w3.org/2000/svg">
    <defs>
        <clipPath id="a">
            <path fill="#fff" fill-opacity="0" d="M0 0h24v25H0z"/>
        </clipPath>
    </defs>
    <path fill="none" d="M0 0h24v25H0z"/>
    <g clip-path="url(#a)">
        <path d="M19.78 4.41c.35-.08.59-.16.79-.25.28-.12.51-.26.87-.5.31-.2.7-.22 1.03-.05.32.18.53.52.53.89 0 1.08-.14 1.96-.45 2.74-.26.66-.63 1.19-1.07 1.67-.19 3.37-1.16 6.01-2.65 8.01-1.54 2.07-3.6 3.4-5.76 4.15-2.16.74-4.44.9-6.48.65-2.03-.25-3.9-.92-5.21-1.94-.36-.27-.48-.76-.31-1.18.18-.41.62-.66 1.07-.59 1.28.18 2.52-.11 3.54-.53-.2-.11-.39-.23-.57-.35-.92-.64-1.67-1.51-2.01-2.19a.974.974 0 0 1 0-.88c.07-.15.17-.27.3-.37-1.36-1.11-1.9-2.66-1.9-3.69 0-.31.14-.6.38-.79.1-.08.22-.14.34-.18-.1-.29-.18-.59-.24-.88-.27-1.29-.24-2.74.04-3.9.1-.39.43-.69.84-.75.4-.05.8.14 1 .5 1.08 1.86 3.07 3 4.92 3.68.87.32 1.67.52 2.27.65.13-1.22.48-2.23 1-3.03a4.565 4.565 0 0 1 2.69-1.96c1.78-.48 3.76.07 5.04 1.07Zm-9.04 5.89c-.68-.13-1.62-.37-2.65-.74-1.36-.5-2.93-1.27-4.25-2.47.02.22.05.44.1.65.22 1.07.63 1.67 1 1.86.46.23.67.76.49 1.24-.24.65-.87.7-1.44.56.46.69 1.29 1.38 2.67 1.61.48.08.83.49.84.97 0 .48-.34.9-.81 1l-.87.17c.13.12.28.23.43.34.7.48 1.4.69 2 .53.45-.11.93.11 1.14.52.21.42.1.92-.25 1.22-.65.54-1.4.97-2.15 1.33-.36.16-.75.33-1.18.47.33.08.67.13 1.03.18 1.77.21 3.74.07 5.58-.57 1.84-.63 3.53-1.74 4.8-3.44 1.27-1.71 2.16-4.07 2.28-7.27.01-.25.11-.49.29-.67.45-.45.82-.97 1-1.58-.32.1-.68.19-1.11.27a.985.985 0 0 1-.89-.28c-.77-.76-2.28-1.26-3.53-.93-.6.16-1.13.51-1.54 1.12-.41.63-.72 1.62-.72 3.11a1 1 0 0 1-.33.74c-.5.45-1.34.18-1.93.06Z" fill="#0F0F0F" fill-rule="evenodd"/>
    </g>
</svg>
