<svg width="24" height="25" fill="none" xmlns="http://www.w3.org/2000/svg">
    <defs>
        <clipPath id="a">
            <path fill="#fff" fill-opacity="0" d="M0 0h24v25H0z"/>
        </clipPath>
    </defs>
    <path fill="none" d="M0 0h24v25H0z"/>
    <g clip-path="url(#a)" fill="#0F0F0F" fill-rule="evenodd">
        <path d="M9.49 7.63a.993.993 0 0 0-1 0c-.31.18-.49.51-.49.87v8a.99.99 0 0 0 1.49.86l7-4c.31-.17.51-.51.51-.86a1 1 0 0 0-.51-.87l-7-4Zm4.49 4.87L10 14.77v-4.55l3.98 2.28Z"/>
        <path d="M0 12.5c0-3.75 0-5.63.95-6.94.31-.43.68-.8 1.11-1.11C3.37 3.5 5.25 3.5 9 3.5h6c3.74 0 5.62 0 6.93.95.43.31.8.68 1.11 1.11.96 1.31.96 3.19.96 6.94 0 3.74 0 5.62-.96 6.93-.31.43-.68.8-1.11 1.11-1.31.96-3.19.96-6.93.96H9c-3.75 0-5.63 0-6.94-.96-.43-.31-.8-.68-1.11-1.11C0 18.12 0 16.24 0 12.5Zm9-7h6c1.91 0 3.19 0 4.16.1.93.1 1.34.28 1.6.47.25.18.48.41.66.66.19.26.37.67.47 1.6.1.97.11 2.25.11 4.17 0 1.91-.01 3.19-.11 4.16-.1.93-.28 1.34-.47 1.6-.18.25-.41.48-.66.66-.26.19-.67.37-1.6.47-.97.1-2.25.11-4.16.11H9c-1.92 0-3.2-.01-4.17-.11-.93-.1-1.34-.28-1.6-.47-.25-.18-.48-.41-.66-.66-.19-.26-.37-.67-.47-1.6-.1-.97-.1-2.25-.1-4.16 0-1.92 0-3.2.1-4.17.1-.93.28-1.34.47-1.6.18-.25.41-.48.66-.66.26-.19.67-.37 1.6-.47.97-.1 2.25-.1 4.17-.1Z"/>
    </g>
</svg>
